<svg xmlns="http://www.w3.org/2000/svg" width="17.079" height="17.068" viewBox="0 0 17.079 17.068">
  <path id="Icon_map-natural-feature" data-name="Icon map-natural-feature" d="M4.626.72h3.2V3.209h-3.2Zm6.658,10.249a.666.666,0,0,1-.613-.629V3.92h5.045l2.073,8.846-.006.525v3.931a.568.568,0,0,1-.551.565H12.46c-.3,0-.366-.263-.366-.565V11.032h-.711m-4.167-.056a.657.657,0,0,0,.611-.62V3.92H2.785L.71,12.772l0,.536v3.93a.554.554,0,0,0,.55.55H6.032c.3,0,.372-.246.372-.55V11.032h.711M8.538,3.92H9.96V9.965H8.538ZM10.671.72h3.556V3.209H10.671Z" transform="translate(-0.71 -0.72)" fill="#707070"/>
</svg>
