<svg xmlns="http://www.w3.org/2000/svg" width="25.76" height="26.702" viewBox="0 0 25.76 26.702">
  <path id="Icon_metro-cog" data-name="Icon metro-cog" d="M26.993,17.841a5.094,5.094,0,0,1,1.881-6.949L26.251,6.347a5.028,5.028,0,0,1-2.551.691,5.094,5.094,0,0,1-5.077-5.111H13.374A5.027,5.027,0,0,1,12.7,4.49,5.094,5.094,0,0,1,5.739,6.335L3.115,10.88a5.029,5.029,0,0,1,1.874,1.864,5.094,5.094,0,0,1-1.87,6.942l2.624,4.545a5.028,5.028,0,0,1,2.54-.685A5.094,5.094,0,0,1,13.36,28.63h5.248a5.029,5.029,0,0,1,.677-2.535,5.094,5.094,0,0,1,6.947-1.852L28.856,19.7a5.029,5.029,0,0,1-1.863-1.857Zm-11,2.844A5.406,5.406,0,1,1,21.4,15.279,5.406,5.406,0,0,1,15.995,20.685Z" transform="translate(-3.115 -1.928)" fill="#757575"/>
</svg>
